<?xml version="1.0" encoding="UTF-8"?>
<svg width="100px" height="100px" viewBox="0 0 100 100" version="1.1" xmlns="http://www.w3.org/2000/svg" xmlns:xlink="http://www.w3.org/1999/xlink">
    <!-- Generator: Sketch 63.1 (92452) - https://sketch.com -->
    <title>virus</title>
    <desc>Created with Sketch.</desc>
    <g id="Page-1" stroke="none" stroke-width="1" fill="none" fill-rule="evenodd">
        <g id="virus-lab-icons" transform="translate(-686.000000, -80.000000)" fill="#000000" fill-rule="nonzero">
            <g id="virus" transform="translate(686.000000, 80.000000)">
                <path d="M55.1846561,41.2380952 C55.1846561,37.5269841 52.1756614,34.5195767 48.4640212,34.5195767 C44.7534392,34.5195767 41.7444444,37.5275132 41.7444444,41.2380952 C41.7444444,44.9507937 44.7539683,47.9587302 48.4640212,47.9587302 C52.1756614,47.9587302 55.1846561,44.9507937 55.1846561,41.2380952 Z" id="Path"></path>
                <circle id="Oval" cx="38.5010582" cy="57.0296296" r="5.37619048"></circle>
                <path d="M58.4285714,48.9650794 C53.9730159,48.9650794 50.3645503,52.5740741 50.3645503,57.0285714 C50.3645503,61.4835979 53.9730159,65.0931217 58.4285714,65.0931217 C62.8809524,65.0931217 66.4915344,61.4835979 66.4915344,57.0285714 C66.4915344,52.5746032 62.8809524,48.9650794 58.4285714,48.9650794 Z" id="Path"></path>
                <path d="M95.6455026,37.7814815 C93.4539683,37.7814815 91.6772487,39.5582011 91.6772487,41.7497354 L91.6772487,45.8391534 L84.8285714,45.8391534 C84.0687831,39.089418 81.394709,32.9137566 77.3634921,27.862963 L82.2190476,23.0068783 L85.110582,25.8984127 C85.8851852,26.673545 86.9010582,27.0608466 87.9164021,27.0608466 C88.9322751,27.0608466 89.947619,26.673545 90.7222222,25.8984127 C92.2719577,24.3486772 92.2719577,21.8365079 90.7222222,20.2867725 L79.3275132,8.89153439 C77.7777778,7.34126984 75.2650794,7.34179894 73.715873,8.89153439 C72.1661376,10.4412698 72.1661376,12.9534392 73.715873,14.5037037 L76.6068783,17.394709 L71.7507937,22.2513228 C66.7,18.221164 60.5248677,15.547619 53.7756614,14.7878307 L53.7756614,7.93650794 L57.8650794,7.93650794 C60.0566138,7.93650794 61.8333333,6.15978836 61.8333333,3.96825397 C61.8333333,1.77671958 60.0566138,0 57.8650794,0 L41.7492063,0 C39.557672,0 37.7809524,1.77671958 37.7809524,3.96825397 C37.7809524,6.15978836 39.557672,7.93650794 41.7492063,7.93650794 L45.8386243,7.93650794 L45.8386243,14.7867725 C39.0888889,15.5470899 32.9137566,18.2206349 27.8624339,22.2513228 L23.0058201,17.3936508 L25.8973545,14.5021164 C27.4470899,12.952381 27.4470899,10.4396825 25.8973545,8.88994709 C24.347619,7.33968254 21.8349206,7.34021164 20.2857143,8.88994709 L8.89100529,20.2862434 C7.34126984,21.8359788 7.34126984,24.3486772 8.89100529,25.8978836 C9.66560847,26.6730159 10.6814815,27.0603175 11.6968254,27.0603175 C12.7121693,27.0603175 13.7280423,26.6730159 14.5026455,25.8978836 L17.3941799,23.0063492 L22.2507937,27.8634921 C18.2201058,32.9142857 15.5465608,39.089418 14.7867725,45.8386243 L7.93703704,45.8386243 L7.93703704,41.7507937 C7.93703704,39.5592593 6.16084656,37.7825397 3.96878307,37.7825397 C1.77724868,37.7825397 0,39.5592593 0,41.7507937 L0,57.8645503 C0,60.0560847 1.77671958,61.8328042 3.96825397,61.8328042 C6.15978836,61.8328042 7.93650794,60.0560847 7.93650794,57.8645503 L7.93650794,53.7751323 L14.7867725,53.7751323 C15.5470899,60.5243386 18.2206349,66.6994709 22.2507937,71.7502646 L17.3941799,76.6074074 L14.5026455,73.715873 C12.9529101,72.1656085 10.4402116,72.1661376 8.89047619,73.715873 C7.34074074,75.2656085 7.34074074,77.7777778 8.89047619,79.3275132 L20.2851852,90.7227513 C21.0597884,91.4978836 22.0756614,91.8851852 23.0910053,91.8851852 C24.1063492,91.8851852 25.1222222,91.4978836 25.8968254,90.7227513 C27.4465608,89.1730159 27.4465608,86.6608466 25.8968254,85.1111111 L23.005291,82.2195767 L27.8624339,77.3619048 C32.9132275,81.3920635 39.0883598,84.0656085 45.8380952,84.8253968 L45.8380952,91.6761905 L41.7486772,91.6761905 C39.5571429,91.6761905 37.7804233,93.4529101 37.7804233,95.6444444 C37.7804233,97.8359788 39.5571429,99.6126984 41.7486772,99.6126984 L57.862963,99.6126984 C60.0544974,99.6126984 61.8312169,97.8359788 61.8312169,95.6444444 C61.8312169,93.4529101 60.0544974,91.6761905 57.862963,91.6761905 L53.7751323,91.6761905 L53.7751323,84.8253968 C60.5243386,84.0656085 66.6994709,81.3925926 71.7502646,77.3624339 L76.6063492,82.2190476 L73.7153439,85.1100529 C72.1656085,86.6597884 72.1656085,89.1719577 73.7153439,90.7222222 C74.4899471,91.4973545 75.5058201,91.8846561 76.521164,91.8846561 C77.5365079,91.8846561 78.552381,91.4973545 79.3269841,90.7222222 L90.7216931,79.3280423 C92.2714286,77.7783069 92.2714286,75.2661376 90.7216931,73.7164021 C89.1719577,72.1661376 86.6592593,72.1666667 85.1100529,73.7164021 L82.2185185,76.6079365 L77.3624339,71.7513228 C81.3936508,66.7005291 84.0671958,60.5253968 84.8275132,53.7756614 L91.6756614,53.7756614 L91.6756614,57.8640212 C91.6756614,60.0555556 93.4518519,61.8322751 95.6439153,61.8322751 C97.8354497,61.8322751 99.6126989,60.0555556 99.6126989,57.8640212 L99.6126989,41.7502646 C99.6137566,39.5582011 97.837037,37.7814815 95.6455026,37.7814815 Z M77.1132275,50.1206349 C77.0296296,57.4767196 74.0269841,64.1428571 69.2068783,69.0111111 C69.1730159,69.0428571 69.1375661,69.0708995 69.1042328,69.1037037 C69.0714286,69.1365079 69.0433862,69.1719577 69.0116402,69.2058201 C64.1386243,74.0296296 57.4645503,77.0328042 50.1005291,77.1111111 C50.0031746,77.1042328 49.9063492,77.0962963 49.8074074,77.0962963 C49.7084656,77.0962963 49.6116402,77.1042328 49.5148148,77.1111111 C34.637037,76.9529101 22.5746032,64.8449735 22.4978836,49.9492063 C22.4994709,49.9010582 22.505291,49.8539683 22.505291,49.8058201 C22.505291,49.757672 22.5,49.710582 22.4978836,49.662963 C22.5756614,34.7126984 34.7253968,22.5677249 49.6783069,22.4973545 C49.7216931,22.4989418 49.7640212,22.5037037 49.8074074,22.5037037 C49.8507937,22.5037037 49.8936508,22.4984127 49.937037,22.4973545 C57.3656085,22.5322751 64.1015873,25.5465608 69.010582,30.4058201 C69.0428571,30.4402116 69.0708995,30.4761905 69.1042328,30.5095238 C69.1375661,30.5428571 69.1740741,30.5714286 69.2079365,30.6037037 C74.0275132,35.4719577 77.0296296,42.1375661 77.1132275,49.4936508 C77.1047619,49.5973545 77.0968254,49.7015873 77.0968254,49.8068783 C77.0968254,49.9121693 77.105291,50.0169312 77.1132275,50.1206349 Z" id="Shape"></path>
            </g>
        </g>
    </g>
</svg>